<svg width="28" height="20" viewBox="0 0 28 20" fill="none" xmlns="http://www.w3.org/2000/svg">
<g clip-path="url(#clip0_30_2075)">
<path d="M0 2C0 0.895431 0.895431 0 2 0H26C27.1046 0 28 0.895431 28 2V18C28 19.1046 27.1046 20 26 20H2C0.895431 20 0 19.1046 0 18V2Z" fill="white"/>
<mask id="mask0_30_2075" style="mask-type:luminance" maskUnits="userSpaceOnUse" x="0" y="0" width="28" height="20">
<path d="M0 2C0 0.895431 0.895431 0 2 0H26C27.1046 0 28 0.895431 28 2V18C28 19.1046 27.1046 20 26 20H2C0.895431 20 0 19.1046 0 18V2Z" fill="white"/>
</mask>
<g mask="url(#mask0_30_2075)">
<path fill-rule="evenodd" clip-rule="evenodd" d="M28 0H0V1.33333H28V0ZM28 2.66667H0V4H28V2.66667ZM0 5.33333H28V6.66667H0V5.33333ZM28 8H0V9.33333H28V8ZM0 10.6667H28V12H0V10.6667ZM28 13.3333H0V14.6667H28V13.3333ZM0 16H28V17.3333H0V16ZM28 18.6667H0V20H28V18.6667Z" fill="#D02F44"/>
<rect width="12" height="9.33333" fill="#46467F"/>
<g filter="url(#filter0_d_30_2075)">
<path fill-rule="evenodd" clip-rule="evenodd" d="M2.66732 1.99998C2.66732 2.36817 2.36884 2.66665 2.00065 2.66665C1.63246 2.66665 1.33398 2.36817 1.33398 1.99998C1.33398 1.63179 1.63246 1.33331 2.00065 1.33331C2.36884 1.33331 2.66732 1.63179 2.66732 1.99998ZM5.33398 1.99998C5.33398 2.36817 5.03551 2.66665 4.66732 2.66665C4.29913 2.66665 4.00065 2.36817 4.00065 1.99998C4.00065 1.63179 4.29913 1.33331 4.66732 1.33331C5.03551 1.33331 5.33398 1.63179 5.33398 1.99998ZM7.33398 2.66665C7.70217 2.66665 8.00065 2.36817 8.00065 1.99998C8.00065 1.63179 7.70217 1.33331 7.33398 1.33331C6.96579 1.33331 6.66732 1.63179 6.66732 1.99998C6.66732 2.36817 6.96579 2.66665 7.33398 2.66665ZM10.6673 1.99998C10.6673 2.36817 10.3688 2.66665 10.0007 2.66665C9.63246 2.66665 9.33398 2.36817 9.33398 1.99998C9.33398 1.63179 9.63246 1.33331 10.0007 1.33331C10.3688 1.33331 10.6673 1.63179 10.6673 1.99998ZM3.33398 3.99998C3.70217 3.99998 4.00065 3.7015 4.00065 3.33331C4.00065 2.96512 3.70217 2.66665 3.33398 2.66665C2.96579 2.66665 2.66732 2.96512 2.66732 3.33331C2.66732 3.7015 2.96579 3.99998 3.33398 3.99998ZM6.66732 3.33331C6.66732 3.7015 6.36884 3.99998 6.00065 3.99998C5.63246 3.99998 5.33398 3.7015 5.33398 3.33331C5.33398 2.96512 5.63246 2.66665 6.00065 2.66665C6.36884 2.66665 6.66732 2.96512 6.66732 3.33331ZM8.66732 3.99998C9.03551 3.99998 9.33398 3.7015 9.33398 3.33331C9.33398 2.96512 9.03551 2.66665 8.66732 2.66665C8.29913 2.66665 8.00065 2.96512 8.00065 3.33331C8.00065 3.7015 8.29913 3.99998 8.66732 3.99998ZM10.6673 4.66665C10.6673 5.03484 10.3688 5.33331 10.0007 5.33331C9.63246 5.33331 9.33398 5.03484 9.33398 4.66665C9.33398 4.29846 9.63246 3.99998 10.0007 3.99998C10.3688 3.99998 10.6673 4.29846 10.6673 4.66665ZM7.33398 5.33331C7.70217 5.33331 8.00065 5.03484 8.00065 4.66665C8.00065 4.29846 7.70217 3.99998 7.33398 3.99998C6.96579 3.99998 6.66732 4.29846 6.66732 4.66665C6.66732 5.03484 6.96579 5.33331 7.33398 5.33331ZM5.33398 4.66665C5.33398 5.03484 5.03551 5.33331 4.66732 5.33331C4.29913 5.33331 4.00065 5.03484 4.00065 4.66665C4.00065 4.29846 4.29913 3.99998 4.66732 3.99998C5.03551 3.99998 5.33398 4.29846 5.33398 4.66665ZM2.00065 5.33331C2.36884 5.33331 2.66732 5.03484 2.66732 4.66665C2.66732 4.29846 2.36884 3.99998 2.00065 3.99998C1.63246 3.99998 1.33398 4.29846 1.33398 4.66665C1.33398 5.03484 1.63246 5.33331 2.00065 5.33331ZM4.00065 5.99998C4.00065 6.36817 3.70217 6.66665 3.33398 6.66665C2.96579 6.66665 2.66732 6.36817 2.66732 5.99998C2.66732 5.63179 2.96579 5.33331 3.33398 5.33331C3.70217 5.33331 4.00065 5.63179 4.00065 5.99998ZM6.00065 6.66665C6.36884 6.66665 6.66732 6.36817 6.66732 5.99998C6.66732 5.63179 6.36884 5.33331 6.00065 5.33331C5.63246 5.33331 5.33398 5.63179 5.33398 5.99998C5.33398 6.36817 5.63246 6.66665 6.00065 6.66665ZM9.33398 5.99998C9.33398 6.36817 9.03551 6.66665 8.66732 6.66665C8.29913 6.66665 8.00065 6.36817 8.00065 5.99998C8.00065 5.63179 8.29913 5.33331 8.66732 5.33331C9.03551 5.33331 9.33398 5.63179 9.33398 5.99998ZM10.0007 7.99998C10.3688 7.99998 10.6673 7.7015 10.6673 7.33331C10.6673 6.96512 10.3688 6.66665 10.0007 6.66665C9.63246 6.66665 9.33398 6.96512 9.33398 7.33331C9.33398 7.7015 9.63246 7.99998 10.0007 7.99998ZM8.00065 7.33331C8.00065 7.7015 7.70217 7.99998 7.33398 7.99998C6.96579 7.99998 6.66732 7.7015 6.66732 7.33331C6.66732 6.96512 6.96579 6.66665 7.33398 6.66665C7.70217 6.66665 8.00065 6.96512 8.00065 7.33331ZM4.66732 7.99998C5.03551 7.99998 5.33398 7.7015 5.33398 7.33331C5.33398 6.96512 5.03551 6.66665 4.66732 6.66665C4.29913 6.66665 4.00065 6.96512 4.00065 7.33331C4.00065 7.7015 4.29913 7.99998 4.66732 7.99998ZM2.66732 7.33331C2.66732 7.7015 2.36884 7.99998 2.00065 7.99998C1.63246 7.99998 1.33398 7.7015 1.33398 7.33331C1.33398 6.96512 1.63246 6.66665 2.00065 6.66665C2.36884 6.66665 2.66732 6.96512 2.66732 7.33331Z" fill="url(#paint0_linear_30_2075)"/>
</g>
</g>
</g>
<defs>
<filter id="filter0_d_30_2075" x="1.33398" y="1.33331" width="9.33398" height="7.66669" filterUnits="userSpaceOnUse" color-interpolation-filters="sRGB">
<feFlood flood-opacity="0" result="BackgroundImageFix"/>
<feColorMatrix in="SourceAlpha" type="matrix" values="0 0 0 0 0 0 0 0 0 0 0 0 0 0 0 0 0 0 127 0" result="hardAlpha"/>
<feOffset dy="1"/>
<feColorMatrix type="matrix" values="0 0 0 0 0 0 0 0 0 0 0 0 0 0 0 0 0 0 0.06 0"/>
<feBlend mode="normal" in2="BackgroundImageFix" result="effect1_dropShadow_30_2075"/>
<feBlend mode="normal" in="SourceGraphic" in2="effect1_dropShadow_30_2075" result="shape"/>
</filter>
<linearGradient id="paint0_linear_30_2075" x1="1.33398" y1="1.33331" x2="1.33398" y2="7.99998" gradientUnits="userSpaceOnUse">
<stop stop-color="white"/>
<stop offset="1" stop-color="#F0F0F0"/>
</linearGradient>
<clipPath id="clip0_30_2075">
<path d="M0 2C0 0.895431 0.895431 0 2 0H26C27.1046 0 28 0.895431 28 2V18C28 19.1046 27.1046 20 26 20H2C0.895431 20 0 19.1046 0 18V2Z" fill="white"/>
</clipPath>
</defs>
</svg>
